# xmcd
#
# Track frame offsets: 
#        150
#        16959
#        33065
#        47128
#        58281
#        71438
#        87993
#        107557
#        120799
#        134764
#        148462
#        161751
#
# Disc length: 2288 seconds
#
# Revision: 0
# Processed by: cddbd v1.5.2PL0 Copyright (c) Steve Scherf et al.
# Submitted via: ExactAudioCopy v1.3
#
DISCID=a808ee0c
DTITLE=Kideggplant and The Melatauns - Big Trouble in Little Chalmette
DYEAR=2019
DGENRE=Blues Rock
TTITLE0=Caught You Slipin In
TTITLE1=Workin' Stiff
TTITLE2=Jelly Donut
TTITLE3=Do Ditty Do
TTITLE4=Double Trouble
TTITLE5=Millionaires in Love
TTITLE6=Boy
TTITLE7=Get High
TTITLE8=Song of the Frogs
TTITLE9=Not Another Tear For You
TTITLE10=Vasectomy
TTITLE11=Reckin Ball
EXTD=
EXTT0=
EXTT1=
EXTT2=
EXTT3=
EXTT4=
EXTT5=
EXTT6=
EXTT7=
EXTT8=
EXTT9=
EXTT10=
EXTT11=
PLAYORDER=
